<svg xmlns="http://www.w3.org/2000/svg" xmlns:xlink="http://www.w3.org/1999/xlink" width="1000" zoomAndPan="magnify" viewBox="0 0 750 749.999995" height="1000" preserveAspectRatio="xMidYMid meet" version="1.0"><defs><clipPath id="f09b62e53e"><path d="M 367.339844 97.753906 L 416.070312 97.753906 L 416.070312 146.484375 L 367.339844 146.484375 Z M 367.339844 97.753906 " clip-rule="nonzero"/></clipPath><clipPath id="2a21c47cc1"><path d="M 391.703125 97.753906 C 378.246094 97.753906 367.339844 108.664062 367.339844 122.121094 C 367.339844 135.578125 378.246094 146.484375 391.703125 146.484375 C 405.164062 146.484375 416.070312 135.578125 416.070312 122.121094 C 416.070312 108.664062 405.164062 97.753906 391.703125 97.753906 Z M 391.703125 97.753906 " clip-rule="nonzero"/></clipPath><clipPath id="d721e7dc77"><path d="M 61.980469 61.980469 L 688.230469 61.980469 L 688.230469 688.230469 L 61.980469 688.230469 Z M 61.980469 61.980469 " clip-rule="nonzero"/></clipPath></defs><g clip-path="url(#f09b62e53e)"><g clip-path="url(#2a21c47cc1)"><path fill="#1475b1" d="M 367.339844 97.753906 L 416.070312 97.753906 L 416.070312 146.484375 L 367.339844 146.484375 Z M 367.339844 97.753906 " fill-opacity="1" fill-rule="nonzero"/></g></g><g clip-path="url(#d721e7dc77)"><path fill="#0068a5" d="M 375.113281 688.246094 C 547.582031 688.246094 688.246094 547.582031 688.246094 375.113281 C 688.246094 202.644531 547.582031 61.980469 375.113281 61.980469 C 202.644531 61.980469 61.980469 202.644531 61.980469 375.113281 C 61.980469 547.582031 202.644531 688.246094 375.113281 688.246094 " fill-opacity="1" fill-rule="evenodd"/></g><path fill="#0068a5" d="M 184.964844 494.867188 L 565.261719 494.867188 L 565.261719 255.359375 L 184.964844 255.359375 L 184.964844 494.867188 " fill-opacity="1" fill-rule="evenodd"/><path fill="#ffffff" d="M 184.964844 242.414062 L 375.113281 242.414062 L 375.113281 268.308594 L 197.910156 268.308594 L 197.910156 481.925781 L 375.113281 481.925781 L 375.113281 507.816406 L 172.015625 507.816406 L 172.015625 242.414062 Z M 375.113281 242.414062 L 578.210938 242.414062 L 578.210938 507.816406 L 375.113281 507.816406 L 375.113281 481.925781 L 552.320312 481.925781 L 552.320312 268.308594 L 375.113281 268.308594 L 375.113281 242.414062 " fill-opacity="1" fill-rule="nonzero"/><path fill="#0068a5" d="M 375.113281 320.09375 L 470.199219 407.480469 L 565.289062 494.871094 L 184.941406 494.871094 L 280.027344 407.480469 L 375.113281 320.09375 " fill-opacity="1" fill-rule="evenodd"/><path fill="#ffffff" d="M 375.113281 507.816406 L 184.941406 507.816406 L 176.191406 485.359375 L 271.277344 397.972656 L 366.363281 310.582031 L 375.113281 302.542969 L 375.113281 337.640625 L 288.777344 416.988281 L 218.125 481.925781 L 375.113281 481.925781 Z M 383.863281 310.582031 L 478.949219 397.972656 L 574.039062 485.359375 L 565.289062 507.816406 L 375.113281 507.816406 L 375.113281 481.925781 L 532.105469 481.925781 L 461.453125 416.988281 L 375.113281 337.640625 L 375.113281 302.542969 L 383.863281 310.582031 " fill-opacity="1" fill-rule="nonzero"/><path fill="#0068a5" d="M 375.113281 430.136719 L 470.199219 342.75 L 565.289062 255.359375 L 184.941406 255.359375 L 280.027344 342.75 L 375.113281 430.136719 " fill-opacity="1" fill-rule="evenodd"/><path fill="#ffffff" d="M 375.113281 268.308594 L 218.125 268.308594 L 288.777344 333.238281 L 375.113281 412.585938 L 375.113281 447.6875 L 366.363281 439.644531 L 271.277344 352.253906 L 176.191406 264.871094 L 184.941406 242.414062 L 375.113281 242.414062 Z M 375.113281 412.585938 L 461.453125 333.238281 L 532.105469 268.308594 L 375.113281 268.308594 L 375.113281 242.414062 L 565.289062 242.414062 L 574.039062 264.871094 L 478.949219 352.253906 L 383.863281 439.644531 L 375.113281 447.6875 L 375.113281 412.585938 " fill-opacity="1" fill-rule="nonzero"/></svg>