<svg xmlns="http://www.w3.org/2000/svg" xmlns:xlink="http://www.w3.org/1999/xlink" width="1000" zoomAndPan="magnify" viewBox="0 0 750 749.999995" height="1000" preserveAspectRatio="xMidYMid meet" version="1.0"><defs><clipPath id="efd47f487c"><path d="M 47.003906 47.003906 L 702.996094 47.003906 L 702.996094 702.996094 L 47.003906 702.996094 Z M 47.003906 47.003906 " clip-rule="nonzero"/></clipPath><clipPath id="0c5dfc9912"><path d="M 375 47.003906 C 193.851562 47.003906 47.003906 193.851562 47.003906 375 C 47.003906 556.148438 193.851562 702.996094 375 702.996094 C 556.148438 702.996094 702.996094 556.148438 702.996094 375 C 702.996094 193.851562 556.148438 47.003906 375 47.003906 Z M 375 47.003906 " clip-rule="nonzero"/></clipPath><clipPath id="748d9161e8"><path d="M 161 165 L 585.972656 165 L 585.972656 591 L 161 591 Z M 161 165 " clip-rule="nonzero"/></clipPath></defs><g clip-path="url(#efd47f487c)"><g clip-path="url(#0c5dfc9912)"><path fill="#1475b1" d="M 47.003906 47.003906 L 702.996094 47.003906 L 702.996094 702.996094 L 47.003906 702.996094 Z M 47.003906 47.003906 " fill-opacity="1" fill-rule="nonzero"/></g></g><path fill="#ffffff" d="M 510.894531 306.042969 C 509.863281 305.4375 508.769531 304.976562 507.613281 304.664062 C 506.457031 304.347656 505.277344 304.191406 504.082031 304.191406 C 502.882812 304.191406 501.707031 304.347656 500.550781 304.664062 C 499.394531 304.976562 498.296875 305.4375 497.265625 306.042969 L 437.566406 340.472656 L 437.566406 324.574219 C 437.566406 323.75 437.523438 322.929688 437.445312 322.109375 C 437.363281 321.289062 437.242188 320.476562 437.078125 319.667969 C 436.917969 318.863281 436.71875 318.066406 436.476562 317.277344 C 436.238281 316.488281 435.960938 315.714844 435.644531 314.957031 C 435.332031 314.195312 434.980469 313.453125 434.589844 312.726562 C 434.203125 312 433.777344 311.296875 433.320312 310.609375 C 432.863281 309.925781 432.375 309.265625 431.851562 308.628906 C 431.328125 307.992188 430.777344 307.382812 430.195312 306.800781 C 429.613281 306.21875 429.003906 305.667969 428.367188 305.144531 C 427.730469 304.625 427.070312 304.132812 426.386719 303.675781 C 425.703125 303.21875 424.996094 302.796875 424.269531 302.40625 C 423.546875 302.019531 422.800781 301.667969 422.042969 301.351562 C 421.28125 301.035156 420.507812 300.757812 419.71875 300.519531 C 418.933594 300.28125 418.136719 300.078125 417.328125 299.917969 C 416.519531 299.757812 415.707031 299.636719 414.886719 299.554688 C 414.070312 299.472656 413.25 299.429688 412.425781 299.429688 L 260.734375 299.429688 C 259.910156 299.433594 259.089844 299.472656 258.273438 299.554688 C 257.453125 299.640625 256.640625 299.761719 255.835938 299.921875 C 255.027344 300.085938 254.230469 300.285156 253.445312 300.527344 C 252.660156 300.765625 251.886719 301.042969 251.125 301.359375 C 250.367188 301.675781 249.625 302.027344 248.898438 302.417969 C 248.175781 302.804688 247.46875 303.226562 246.785156 303.6875 C 246.101562 304.144531 245.445312 304.632812 244.808594 305.15625 C 244.171875 305.679688 243.5625 306.230469 242.984375 306.8125 C 242.402344 307.394531 241.851562 308.003906 241.328125 308.640625 C 240.808594 309.277344 240.316406 309.9375 239.859375 310.621094 C 239.402344 311.304688 238.980469 312.007812 238.59375 312.734375 C 238.207031 313.460938 237.855469 314.203125 237.539062 314.960938 C 237.222656 315.722656 236.945312 316.496094 236.707031 317.28125 C 236.46875 318.070312 236.269531 318.867188 236.109375 319.671875 C 235.945312 320.480469 235.824219 321.292969 235.742188 322.109375 C 235.664062 322.929688 235.621094 323.75 235.621094 324.574219 L 235.621094 431.097656 C 235.621094 431.917969 235.664062 432.742188 235.746094 433.558594 C 235.824219 434.378906 235.945312 435.191406 236.109375 436 C 236.269531 436.804688 236.46875 437.605469 236.710938 438.390625 C 236.949219 439.179688 237.226562 439.953125 237.542969 440.714844 C 237.859375 441.472656 238.210938 442.214844 238.597656 442.941406 C 238.984375 443.667969 239.410156 444.375 239.867188 445.058594 C 240.324219 445.742188 240.8125 446.402344 241.335938 447.039062 C 241.859375 447.675781 242.410156 448.285156 242.992188 448.867188 C 243.574219 449.449219 244.183594 450 244.820312 450.523438 C 245.457031 451.046875 246.117188 451.535156 246.800781 451.992188 C 247.484375 452.449219 248.191406 452.875 248.917969 453.261719 C 249.640625 453.648438 250.386719 454 251.144531 454.316406 C 251.90625 454.632812 252.679688 454.910156 253.46875 455.148438 C 254.253906 455.390625 255.050781 455.589844 255.859375 455.75 C 256.667969 455.910156 257.480469 456.035156 258.300781 456.113281 C 259.117188 456.195312 259.941406 456.238281 260.761719 456.238281 L 412.453125 456.238281 C 413.277344 456.238281 414.097656 456.195312 414.917969 456.113281 C 415.734375 456.035156 416.550781 455.910156 417.355469 455.75 C 418.164062 455.589844 418.960938 455.390625 419.75 455.148438 C 420.535156 454.910156 421.308594 454.632812 422.070312 454.316406 C 422.832031 454 423.574219 453.648438 424.300781 453.261719 C 425.027344 452.875 425.730469 452.449219 426.414062 451.992188 C 427.097656 451.535156 427.757812 451.046875 428.394531 450.523438 C 429.03125 450 429.640625 449.449219 430.222656 448.867188 C 430.804688 448.285156 431.359375 447.675781 431.878906 447.039062 C 432.402344 446.402344 432.890625 445.742188 433.351562 445.058594 C 433.808594 444.375 434.230469 443.667969 434.617188 442.941406 C 435.007812 442.214844 435.359375 441.472656 435.675781 440.714844 C 435.988281 439.953125 436.265625 439.179688 436.507812 438.390625 C 436.746094 437.605469 436.945312 436.804688 437.109375 436 C 437.269531 435.191406 437.390625 434.378906 437.472656 433.558594 C 437.554688 432.742188 437.59375 431.917969 437.597656 431.097656 L 437.597656 415.175781 L 497.273438 449.574219 C 498.308594 450.183594 499.402344 450.644531 500.558594 450.960938 C 501.71875 451.273438 502.894531 451.429688 504.09375 451.429688 C 505.292969 451.429688 506.472656 451.273438 507.628906 450.960938 C 508.789062 450.644531 509.882812 450.183594 510.917969 449.574219 C 511.957031 448.984375 512.898438 448.269531 513.746094 447.429688 C 514.59375 446.589844 515.316406 445.652344 515.914062 444.617188 C 516.511719 443.585938 516.960938 442.492188 517.269531 441.335938 C 517.574219 440.183594 517.722656 439.011719 517.714844 437.816406 L 517.714844 317.796875 C 517.722656 316.601562 517.570312 315.425781 517.265625 314.273438 C 516.957031 313.121094 516.503906 312.027344 515.902344 310.992188 C 515.304688 309.960938 514.582031 309.023438 513.730469 308.183594 C 512.882812 307.34375 511.9375 306.628906 510.894531 306.042969 Z M 412.425781 442.0625 L 260.734375 442.0625 C 260.015625 442.058594 259.304688 441.988281 258.601562 441.84375 C 257.894531 441.703125 257.210938 441.492188 256.550781 441.214844 C 255.886719 440.9375 255.257812 440.601562 254.660156 440.199219 C 254.0625 439.800781 253.511719 439.34375 253.003906 438.835938 C 252.496094 438.328125 252.042969 437.773438 251.644531 437.175781 C 251.246094 436.578125 250.90625 435.949219 250.632812 435.285156 C 250.359375 434.621094 250.148438 433.9375 250.007812 433.230469 C 249.867188 432.527344 249.796875 431.816406 249.796875 431.097656 L 249.796875 324.574219 C 249.796875 323.851562 249.871094 323.140625 250.011719 322.433594 C 250.152344 321.730469 250.359375 321.042969 250.636719 320.378906 C 250.910156 319.714844 251.25 319.082031 251.648438 318.484375 C 252.050781 317.886719 252.503906 317.332031 253.011719 316.824219 C 253.523438 316.3125 254.074219 315.859375 254.675781 315.460938 C 255.273438 315.058594 255.902344 314.722656 256.570312 314.445312 C 257.234375 314.167969 257.917969 313.960938 258.625 313.820312 C 259.332031 313.679688 260.042969 313.609375 260.761719 313.605469 L 412.453125 313.605469 C 413.171875 313.609375 413.886719 313.679688 414.589844 313.820312 C 415.296875 313.960938 415.984375 314.167969 416.648438 314.445312 C 417.3125 314.722656 417.945312 315.058594 418.542969 315.460938 C 419.140625 315.859375 419.695312 316.3125 420.203125 316.824219 C 420.710938 317.332031 421.167969 317.886719 421.566406 318.484375 C 421.964844 319.082031 422.304688 319.714844 422.582031 320.378906 C 422.855469 321.042969 423.066406 321.730469 423.207031 322.433594 C 423.347656 323.140625 423.417969 323.851562 423.417969 324.574219 L 423.417969 353.550781 C 423.421875 353.585938 423.421875 353.625 423.417969 353.664062 L 423.417969 401.976562 C 423.421875 402.015625 423.421875 402.054688 423.417969 402.089844 L 423.417969 431.097656 C 423.417969 431.816406 423.347656 432.53125 423.207031 433.238281 C 423.0625 433.945312 422.855469 434.632812 422.578125 435.296875 C 422.300781 435.960938 421.960938 436.59375 421.5625 437.195312 C 421.160156 437.792969 420.703125 438.347656 420.191406 438.855469 C 419.683594 439.363281 419.128906 439.820312 418.527344 440.21875 C 417.925781 440.617188 417.292969 440.957031 416.628906 441.230469 C 415.960938 441.507812 415.273438 441.714844 414.566406 441.855469 C 413.859375 441.992188 413.144531 442.0625 412.425781 442.0625 Z M 503.511719 436.824219 L 437.589844 398.808594 L 437.589844 356.839844 L 503.511719 318.832031 Z M 503.511719 436.824219 " fill-opacity="1" fill-rule="nonzero"/><g clip-path="url(#748d9161e8)"><path fill="#ffffff" d="M 373.84375 165.183594 C 371.128906 165.183594 368.414062 165.230469 365.699219 165.332031 C 362.984375 165.433594 360.277344 165.589844 357.566406 165.792969 C 354.859375 166 352.15625 166.257812 349.460938 166.566406 C 346.761719 166.875 344.070312 167.238281 341.386719 167.648438 C 338.703125 168.0625 336.027344 168.527344 333.363281 169.039062 C 330.695312 169.554688 328.039062 170.121094 325.394531 170.738281 C 322.75 171.355469 320.121094 172.023438 317.5 172.742188 C 314.882812 173.457031 312.277344 174.226562 309.6875 175.042969 C 307.097656 175.863281 304.527344 176.726562 301.96875 177.644531 C 299.414062 178.5625 296.875 179.527344 294.355469 180.539062 C 291.835938 181.554688 289.339844 182.613281 286.859375 183.722656 C 284.382812 184.832031 281.925781 185.988281 279.492188 187.191406 C 277.058594 188.398438 274.648438 189.644531 272.261719 190.941406 C 269.875 192.238281 267.515625 193.578125 265.179688 194.964844 C 262.84375 196.351562 260.535156 197.78125 258.257812 199.257812 C 255.976562 200.734375 253.726562 202.25 251.503906 203.8125 C 249.28125 205.375 247.089844 206.976562 244.929688 208.621094 C 242.769531 210.265625 240.644531 211.953125 238.546875 213.679688 C 236.453125 215.40625 234.390625 217.171875 232.363281 218.980469 C 230.335938 220.785156 228.339844 222.628906 226.382812 224.511719 C 224.425781 226.394531 222.507812 228.3125 220.621094 230.269531 C 218.738281 232.226562 216.894531 234.214844 215.085938 236.242188 C 213.28125 238.269531 211.511719 240.332031 209.785156 242.425781 C 208.054688 244.519531 206.367188 246.644531 204.722656 248.804688 C 203.074219 250.964844 201.46875 253.152344 199.90625 255.375 C 198.34375 257.59375 196.824219 259.84375 195.347656 262.125 C 193.871094 264.402344 192.4375 266.710938 191.050781 269.042969 C 189.664062 271.378906 188.320312 273.738281 187.023438 276.121094 C 185.726562 278.507812 184.472656 280.917969 183.269531 283.351562 C 182.0625 285.785156 180.90625 288.238281 179.792969 290.71875 C 178.683594 293.195312 177.621094 295.691406 176.605469 298.210938 C 175.589844 300.730469 174.621094 303.265625 173.703125 305.824219 C 172.785156 308.378906 171.917969 310.949219 171.097656 313.539062 C 170.277344 316.128906 169.507812 318.730469 168.789062 321.351562 C 168.070312 323.96875 167.402344 326.601562 166.78125 329.242188 C 166.164062 331.886719 165.597656 334.542969 165.078125 337.207031 C 164.5625 339.875 164.097656 342.550781 163.683594 345.234375 C 163.269531 347.917969 162.90625 350.605469 162.59375 353.304688 C 162.28125 356.003906 162.023438 358.703125 161.816406 361.414062 C 161.609375 364.121094 161.453125 366.832031 161.347656 369.542969 C 161.246094 372.257812 161.195312 374.972656 161.195312 377.6875 C 161.195312 380.402344 161.246094 383.117188 161.351562 385.832031 C 161.457031 388.542969 161.613281 391.253906 161.820312 393.960938 C 162.03125 396.667969 162.289062 399.371094 162.601562 402.070312 C 162.914062 404.765625 163.277344 407.457031 163.695312 410.140625 C 164.109375 412.824219 164.574219 415.5 165.09375 418.164062 C 165.609375 420.832031 166.179688 423.484375 166.800781 426.128906 C 167.417969 428.773438 168.089844 431.402344 168.808594 434.023438 C 169.53125 436.640625 170.300781 439.242188 171.121094 441.832031 C 171.941406 444.421875 172.8125 446.992188 173.730469 449.546875 C 174.648438 452.101562 175.617188 454.640625 176.632812 457.15625 C 177.648438 459.675781 178.710938 462.171875 179.824219 464.652344 C 180.9375 467.128906 182.09375 469.582031 183.300781 472.015625 C 184.507812 474.449219 185.757812 476.859375 187.058594 479.242188 C 188.355469 481.628906 189.699219 483.988281 191.089844 486.320312 C 192.476562 488.652344 193.910156 490.960938 195.386719 493.238281 C 196.867188 495.515625 198.386719 497.765625 199.949219 499.984375 C 201.511719 502.207031 203.117188 504.394531 204.765625 506.554688 C 206.414062 508.714844 208.101562 510.839844 209.832031 512.933594 C 211.558594 515.027344 213.328125 517.085938 215.136719 519.113281 C 216.945312 521.140625 218.789062 523.128906 220.675781 525.085938 C 222.558594 527.039062 224.480469 528.957031 226.4375 530.839844 C 228.394531 532.722656 230.390625 534.566406 232.417969 536.371094 C 234.445312 538.175781 236.507812 539.941406 238.605469 541.667969 L 201.894531 578.386719 C 201.398438 578.878906 200.984375 579.4375 200.65625 580.054688 C 200.324219 580.671875 200.089844 581.328125 199.953125 582.015625 C 199.816406 582.703125 199.785156 583.394531 199.851562 584.089844 C 199.921875 584.789062 200.089844 585.460938 200.359375 586.109375 C 200.625 586.757812 200.984375 587.351562 201.425781 587.894531 C 201.871094 588.433594 202.386719 588.898438 202.96875 589.289062 C 203.550781 589.679688 204.179688 589.976562 204.847656 590.179688 C 205.519531 590.382812 206.203125 590.484375 206.90625 590.484375 L 373.84375 590.484375 C 377.324219 590.484375 380.800781 590.398438 384.277344 590.226562 C 387.753906 590.058594 391.222656 589.800781 394.6875 589.460938 C 398.148438 589.121094 401.601562 588.695312 405.046875 588.183594 C 408.488281 587.671875 411.914062 587.078125 415.328125 586.398438 C 418.742188 585.71875 422.136719 584.957031 425.511719 584.113281 C 428.890625 583.265625 432.242188 582.339844 435.574219 581.328125 C 438.902344 580.316406 442.207031 579.226562 445.484375 578.054688 C 448.757812 576.882812 452.003906 575.628906 455.222656 574.296875 C 458.4375 572.964844 461.617188 571.554688 464.761719 570.066406 C 467.910156 568.578125 471.015625 567.015625 474.085938 565.375 C 477.15625 563.734375 480.183594 562.019531 483.167969 560.230469 C 486.152344 558.441406 489.089844 556.578125 491.984375 554.648438 C 494.878906 552.714844 497.722656 550.710938 500.519531 548.636719 C 503.3125 546.5625 506.058594 544.421875 508.746094 542.214844 C 511.4375 540.007812 514.070312 537.734375 516.648438 535.398438 C 519.230469 533.0625 521.75 530.660156 524.210938 528.199219 C 526.671875 525.738281 529.070312 523.21875 531.40625 520.640625 C 533.742188 518.0625 536.015625 515.429688 538.222656 512.738281 C 540.433594 510.046875 542.574219 507.304688 544.644531 504.511719 C 546.71875 501.714844 548.722656 498.871094 550.65625 495.976562 C 552.589844 493.082031 554.449219 490.144531 556.238281 487.160156 C 558.027344 484.171875 559.742188 481.144531 561.382812 478.078125 C 563.023438 475.007812 564.589844 471.898438 566.078125 468.753906 C 567.566406 465.609375 568.972656 462.425781 570.304688 459.210938 C 571.636719 455.996094 572.890625 452.75 574.0625 449.472656 C 575.234375 446.199219 576.328125 442.894531 577.335938 439.5625 C 578.347656 436.234375 579.273438 432.878906 580.121094 429.503906 C 580.964844 426.128906 581.726562 422.734375 582.40625 419.320312 C 583.085938 415.90625 583.679688 412.480469 584.191406 409.035156 C 584.703125 405.59375 585.128906 402.140625 585.46875 398.679688 C 585.8125 395.214844 586.066406 391.746094 586.238281 388.269531 C 586.40625 384.792969 586.492188 381.316406 586.492188 377.835938 C 586.492188 374.355469 586.40625 370.875 586.238281 367.398438 C 586.066406 363.925781 585.8125 360.453125 585.46875 356.992188 C 585.128906 353.527344 584.703125 350.074219 584.191406 346.632812 C 583.679688 343.191406 583.085938 339.761719 582.40625 336.347656 C 581.726562 332.933594 580.964844 329.539062 580.121094 326.164062 C 579.273438 322.789062 578.347656 319.4375 577.335938 316.105469 C 576.328125 312.773438 575.234375 309.472656 574.0625 306.195312 C 572.890625 302.917969 571.636719 299.671875 570.304688 296.457031 C 568.972656 293.242188 567.566406 290.0625 566.078125 286.914062 C 564.589844 283.769531 563.023438 280.660156 561.382812 277.59375 C 559.742188 274.523438 558.027344 271.496094 556.238281 268.511719 C 554.449219 265.523438 552.589844 262.585938 550.65625 259.691406 C 548.722656 256.796875 546.71875 253.953125 544.644531 251.160156 C 542.574219 248.363281 540.433594 245.621094 538.222656 242.929688 C 536.015625 240.242188 533.742188 237.605469 531.40625 235.027344 C 529.070312 232.449219 526.671875 229.929688 524.210938 227.46875 C 521.75 225.007812 519.230469 222.609375 516.648438 220.269531 C 514.070312 217.933594 511.4375 215.660156 508.746094 213.453125 C 506.058594 211.246094 503.3125 209.105469 500.519531 207.03125 C 497.722656 204.960938 494.878906 202.957031 491.984375 201.023438 C 489.089844 199.089844 486.152344 197.226562 483.167969 195.4375 C 480.183594 193.648438 477.15625 191.933594 474.085938 190.292969 C 471.015625 188.652344 467.910156 187.089844 464.761719 185.601562 C 461.617188 184.113281 458.4375 182.703125 455.222656 181.371094 C 452.003906 180.039062 448.757812 178.789062 445.484375 177.613281 C 442.207031 176.441406 438.902344 175.351562 435.574219 174.339844 C 432.242188 173.332031 428.890625 172.402344 425.511719 171.558594 C 422.136719 170.710938 418.742188 169.949219 415.328125 169.269531 C 411.914062 168.589844 408.488281 167.996094 405.046875 167.484375 C 401.601562 166.976562 398.148438 166.550781 394.6875 166.207031 C 391.222656 165.867188 387.753906 165.609375 384.277344 165.441406 C 380.800781 165.269531 377.324219 165.183594 373.84375 165.183594 Z M 373.84375 576.308594 L 224.015625 576.308594 L 254.25 546.070312 C 254.605469 545.710938 254.917969 545.320312 255.191406 544.898438 C 255.464844 544.472656 255.691406 544.023438 255.867188 543.550781 C 256.042969 543.082031 256.167969 542.59375 256.242188 542.09375 C 256.316406 541.597656 256.335938 541.09375 256.300781 540.59375 C 256.269531 540.089844 256.183594 539.59375 256.042969 539.109375 C 255.90625 538.625 255.714844 538.160156 255.476562 537.714844 C 255.238281 537.273438 254.957031 536.855469 254.628906 536.472656 C 254.304688 536.089844 253.941406 535.742188 253.539062 535.4375 C 250.464844 533.078125 247.457031 530.632812 244.523438 528.101562 C 241.589844 525.566406 238.734375 522.949219 235.953125 520.246094 C 233.175781 517.546875 230.476562 514.765625 227.859375 511.90625 C 225.242188 509.046875 222.710938 506.109375 220.265625 503.101562 C 217.820312 500.09375 215.46875 497.019531 213.203125 493.871094 C 210.9375 490.726562 208.769531 487.515625 206.691406 484.242188 C 204.617188 480.96875 202.640625 477.636719 200.757812 474.246094 C 198.878906 470.855469 197.097656 467.414062 195.421875 463.921875 C 193.742188 460.425781 192.167969 456.886719 190.699219 453.300781 C 189.226562 449.714844 187.863281 446.085938 186.605469 442.421875 C 185.347656 438.753906 184.195312 435.054688 183.15625 431.320312 C 182.117188 427.585938 181.183594 423.824219 180.363281 420.035156 C 179.542969 416.246094 178.835938 412.4375 178.238281 408.609375 C 177.644531 404.777344 177.160156 400.933594 176.789062 397.074219 C 176.417969 393.214844 176.160156 389.351562 176.015625 385.476562 C 175.871094 381.601562 175.839844 377.726562 175.921875 373.851562 C 176.003906 369.976562 176.203125 366.109375 176.511719 362.242188 C 176.820312 358.378906 177.246094 354.527344 177.78125 350.6875 C 178.316406 346.851562 178.964844 343.03125 179.726562 339.230469 C 180.484375 335.429688 181.355469 331.652344 182.335938 327.902344 C 183.320312 324.152344 184.410156 320.433594 185.609375 316.75 C 186.808594 313.0625 188.117188 309.414062 189.53125 305.804688 C 190.945312 302.195312 192.460938 298.632812 194.085938 295.113281 C 195.707031 291.589844 197.433594 288.121094 199.257812 284.703125 C 201.085938 281.285156 203.011719 277.921875 205.035156 274.613281 C 207.058594 271.308594 209.175781 268.066406 211.390625 264.882812 C 213.605469 261.703125 215.910156 258.585938 218.308594 255.539062 C 220.703125 252.492188 223.1875 249.519531 225.757812 246.621094 C 228.332031 243.71875 230.984375 240.894531 233.722656 238.152344 C 236.457031 235.40625 239.273438 232.742188 242.167969 230.164062 C 245.058594 227.582031 248.027344 225.089844 251.066406 222.683594 C 254.105469 220.277344 257.210938 217.964844 260.386719 215.742188 C 263.5625 213.515625 266.800781 211.386719 270.097656 209.355469 C 273.398438 207.320312 276.757812 205.386719 280.167969 203.546875 C 283.582031 201.710938 287.046875 199.976562 290.5625 198.34375 C 294.078125 196.710938 297.640625 195.179688 301.242188 193.757812 C 304.847656 192.332031 308.492188 191.015625 312.175781 189.804688 C 315.855469 188.59375 319.570312 187.492188 323.320312 186.496094 C 327.066406 185.503906 330.839844 184.621094 334.636719 183.851562 C 338.4375 183.078125 342.253906 182.421875 346.09375 181.871094 C 349.929688 181.324219 353.78125 180.890625 357.640625 180.570312 C 361.503906 180.246094 365.375 180.039062 369.25 179.945312 C 373.125 179.851562 377 179.867188 380.875 180 C 384.746094 180.132812 388.613281 180.378906 392.472656 180.738281 C 396.332031 181.101562 400.179688 181.570312 404.011719 182.15625 C 407.84375 182.742188 411.65625 183.441406 415.445312 184.25 C 419.238281 185.058594 423 185.976562 426.738281 187.007812 C 430.476562 188.035156 434.179688 189.175781 437.847656 190.421875 C 441.519531 191.667969 445.148438 193.019531 448.742188 194.480469 C 452.332031 195.941406 455.875 197.503906 459.375 199.171875 C 462.875 200.839844 466.320312 202.609375 469.71875 204.480469 C 473.113281 206.351562 476.449219 208.316406 479.730469 210.382812 C 483.011719 212.449219 486.226562 214.609375 489.378906 216.863281 C 492.53125 219.121094 495.617188 221.464844 498.632812 223.902344 C 501.648438 226.335938 504.589844 228.859375 507.457031 231.464844 C 510.324219 234.074219 513.113281 236.765625 515.824219 239.535156 C 518.53125 242.308594 521.160156 245.15625 523.703125 248.082031 C 526.246094 251.007812 528.699219 254.007812 531.066406 257.078125 C 533.433594 260.148438 535.707031 263.285156 537.890625 266.488281 C 540.074219 269.691406 542.160156 272.953125 544.152344 276.28125 C 546.140625 279.605469 548.035156 282.988281 549.828125 286.425781 C 551.621094 289.863281 553.308594 293.347656 554.898438 296.882812 C 556.484375 300.421875 557.96875 304 559.347656 307.621094 C 560.726562 311.246094 561.996094 314.90625 563.160156 318.601562 C 564.324219 322.300781 565.378906 326.03125 566.324219 329.789062 C 567.265625 333.546875 568.101562 337.332031 568.824219 341.140625 C 569.546875 344.949219 570.15625 348.773438 570.65625 352.621094 C 571.152344 356.464844 571.539062 360.320312 571.8125 364.1875 C 572.082031 368.050781 572.242188 371.925781 572.285156 375.800781 C 572.332031 379.675781 572.261719 383.550781 572.082031 387.421875 C 571.898438 391.292969 571.601562 395.15625 571.191406 399.011719 C 570.785156 402.867188 570.261719 406.707031 569.628906 410.53125 C 568.992188 414.355469 568.246094 418.15625 567.390625 421.9375 C 566.53125 425.71875 565.566406 429.46875 564.488281 433.191406 C 563.410156 436.917969 562.226562 440.605469 560.929688 444.257812 C 559.636719 447.914062 558.238281 451.527344 556.730469 455.097656 C 555.226562 458.667969 553.617188 462.195312 551.902344 465.671875 C 550.191406 469.148438 548.378906 472.574219 546.464844 475.945312 C 544.550781 479.316406 542.539062 482.628906 540.433594 485.878906 C 538.324219 489.132812 536.125 492.324219 533.828125 495.445312 C 531.53125 498.570312 529.148438 501.625 526.675781 504.609375 C 524.199219 507.59375 521.640625 510.5 518.996094 513.335938 C 516.351562 516.167969 513.625 518.921875 510.820312 521.597656 C 508.011719 524.269531 505.128906 526.859375 502.171875 529.367188 C 499.214844 531.871094 496.183594 534.285156 493.085938 536.613281 C 489.984375 538.941406 486.820312 541.175781 483.589844 543.316406 C 480.355469 545.457031 477.066406 547.503906 473.714844 549.449219 C 470.363281 551.398438 466.957031 553.246094 463.5 554.996094 C 460.039062 556.746094 456.53125 558.390625 452.976562 559.933594 C 449.417969 561.476562 445.820312 562.914062 442.179688 564.246094 C 438.539062 565.578125 434.863281 566.800781 431.152344 567.917969 C 427.441406 569.03125 423.699219 570.039062 419.925781 570.933594 C 416.15625 571.832031 412.363281 572.617188 408.542969 573.289062 C 404.726562 573.964844 400.894531 574.527344 397.042969 574.972656 C 393.191406 575.421875 389.332031 575.757812 385.460938 575.980469 C 381.59375 576.203125 377.71875 576.3125 373.84375 576.308594 Z M 373.84375 576.308594 " fill-opacity="1" fill-rule="nonzero"/></g></svg>